<svg id="Capa_1" enable-background="new 0 0 512 512" height="512" viewBox="0 0 512 512" width="512" xmlns="http://www.w3.org/2000/svg"><g><g><circle cx="370.566" cy="72.113" fill="#565e75" r="72.113"/></g><g><circle cx="141.434" cy="72.113" fill="#565e75" r="72.113"/></g><g><path d="m152.696.881c.576 3.671.881 7.43.881 11.262 0 39.827-32.286 72.113-72.113 72.113-3.832 0-7.592-.305-11.262-.881 5.408 34.476 35.237 60.851 71.232 60.851 39.827 0 72.113-32.286 72.113-72.113-.001-35.995-26.375-65.824-60.851-71.232z" fill="#404656"/></g><g><path d="m359.304.881c-.576 3.671-.881 7.43-.881 11.262 0 39.827 32.286 72.113 72.113 72.113 3.832 0 7.592-.305 11.262-.881-5.408 34.476-35.237 60.851-71.232 60.851-39.827 0-72.113-32.286-72.113-72.113.001-35.995 26.375-65.824 60.851-71.232z" fill="#404656"/></g><g><path d="m256 37.087c-91.033 0-164.829 73.796-164.829 164.829v15.705l164.829 68.009 164.829-68.009v-15.705c0-91.033-73.796-164.829-164.829-164.829z" fill="#6e768f"/></g><g><path d="m256 137.008c-47.058-17.749-51.916-99.916-.005-99.922-91.03.003-164.824 73.798-164.824 164.829v15.705l164.829 68.01z" fill="#565e75"/></g><g><path d="m348.177 427.979h-184.354c-14.978 16.423-25.631 36.858-30.145 59.51-2.53 12.696 7.29 24.511 20.235 24.511h204.173c12.945 0 22.765-11.815 20.235-24.511-4.513-22.651-15.166-43.087-30.144-59.51z" fill="#f7ef87"/></g><g><path d="m256 462.169v-34.189h-92.177c-14.978 16.423-25.631 36.858-30.145 59.51-2.53 12.696 7.29 24.511 20.235 24.511h102.087c-13.761 0-24.916-11.155-24.916-24.916s11.155-24.916 24.916-24.916z" fill="#f2d98d"/></g><g><path d="m256 387.271c-36.518 0-69.366 15.698-92.177 40.709 16.905 20.27 51.829 34.189 92.177 34.189s75.271-13.919 92.177-34.189c-22.811-25.011-55.659-40.709-92.177-40.709z" fill="#d69a8a"/></g><g><circle cx="405.509" cy="250.984" fill="#e1ac9a" r="37.17"/></g><g><circle cx="106.491" cy="250.984" fill="#d69a8a" r="37.17"/></g><g><path d="m59.09 281.938 50.233-11.493c7.405-1.694 14.034 4.935 12.34 12.34l-11.493 50.233c-1.807 7.896-11.599 10.714-17.327 4.987l-38.74-38.74c-5.727-5.728-2.909-15.521 4.987-17.327z" fill="#a3defe"/></g><g><path d="m401.83 333.018-11.493-50.233c-1.694-7.405 4.935-14.034 12.34-12.34l50.233 11.493c7.896 1.807 10.714 11.599 4.987 17.327l-38.74 38.74c-5.728 5.727-15.52 2.909-17.327-4.987z" fill="#a3defe"/></g><g><g><path d="m241.45 134.993c-42.19-11.891-101.299 6.243-130.234 79.116-3.045 11.993-4.644 24.562-4.589 37.515.347 82.25 69.403 149.942 151.645 148.717 81.452-1.213 147.106-67.619 147.106-149.359 0-12.726-1.596-25.078-4.591-36.872-28.935-72.873-88.044-91.007-130.234-79.116-9.532 2.686-19.571 2.686-29.103-.001z" fill="#e7beaf"/></g></g><g><g><path d="m158.134 250.981c0-48.773 23.381-92.077 59.54-119.338-38.427-.384-82.654 22.513-106.459 82.466-3.045 11.993-4.644 24.562-4.589 37.515.347 82.25 69.403 149.942 151.645 148.717 7.996-.119 15.836-.875 23.48-2.204-70.221-12.207-123.617-73.442-123.617-147.156z" fill="#e1ac9a"/></g></g><g><g><g><ellipse cx="174.042" cy="279.649" fill="#fff" rx="30.241" ry="24.082"/></g><g><ellipse cx="337.958" cy="279.649" fill="#fff" rx="30.241" ry="24.082"/></g></g><g><path d="m191.666 263.966c-4.143 0-7.5-3.358-7.5-7.5v-12.362c0-4.142 3.357-7.5 7.5-7.5s7.5 3.358 7.5 7.5v12.362c0 4.142-3.357 7.5-7.5 7.5z" fill="#565e75"/></g><g><path d="m320.333 263.966c-4.143 0-7.5-3.358-7.5-7.5v-12.362c0-4.142 3.357-7.5 7.5-7.5s7.5 3.358 7.5 7.5v12.362c0 4.142-3.357 7.5-7.5 7.5z" fill="#565e75"/></g><g><path d="m256 271.325c-8.668 0-16.911-3.754-22.615-10.299-2.722-3.123-2.396-7.86.727-10.582 3.122-2.722 7.859-2.397 10.582.726 2.854 3.276 6.976 5.154 11.307 5.154s8.452-1.878 11.307-5.154c2.723-3.123 7.459-3.448 10.582-.726 3.123 2.721 3.448 7.459.727 10.582-5.706 6.545-13.949 10.299-22.617 10.299z" fill="#565e75"/></g></g></g></svg>